<!-- icon666.com - MILLIONS vector ICONS FREE --><svg id="Layer_1" enable-background="new 0 0 64 64" viewBox="0 0 64 64" xmlns="http://www.w3.org/2000/svg"><g><path d="m21.909 2.415-12.257-1.208c-1.648-.175-3.117 1.043-3.279 2.691-.162 1.649 1.043 3.118 2.692 3.28l3.564.351c-.949.751-1.864 1.554-2.732 2.422-5.875 5.875-9.11 13.687-9.11 21.999s3.235 16.125 9.109 21.999c2.771 2.772 5.968 4.954 9.503 6.486.389.168.793.248 1.191.248 1.16 0 2.264-.677 2.754-1.809.659-1.52-.04-3.286-1.56-3.945-2.839-1.229-5.411-2.987-7.646-5.223-4.74-4.741-7.352-11.047-7.352-17.756s2.611-13.015 7.353-17.756c1.112-1.112 2.308-2.105 3.578-2.974l-.704 4.732c-.244 1.639.887 3.165 2.526 3.408.149.022.298.033.445.033 1.461 0 2.742-1.07 2.963-2.559l1.634-10.993c.121-.812-.097-1.639-.602-2.286-.504-.648-1.253-1.06-2.07-1.14z"></path><path d="m54.947 56.824-3.564-.351c.949-.751 1.864-1.554 2.733-2.422 12.13-12.13 12.13-31.867 0-43.998-2.772-2.772-5.97-4.954-9.503-6.485-1.522-.66-3.286.041-3.946 1.559-.658 1.521.04 3.287 1.56 3.946 2.838 1.23 5.411 2.988 7.647 5.223 9.79 9.791 9.79 25.722 0 35.512-1.112 1.112-2.308 2.105-3.578 2.974l.703-4.731c.243-1.64-.888-3.165-2.526-3.409-1.648-.235-3.165.888-3.409 2.526l-1.634 10.993c-.12.813.098 1.64.603 2.287s1.254 1.06 2.071 1.14l12.256 1.207c.1.01.199.015.298.015 1.524 0 2.829-1.157 2.981-2.706.163-1.649-1.042-3.118-2.692-3.28z"></path></g></svg>